<svg width="200" height="200" xmlns="http://www.w3.org/2000/svg">
    <rect x="1" y="1" width="198" height="198" fill="none" stroke="black" stroke-width="2"/>
<g transform="translate(150, 50) scale(0.7)">
        <path d="M 0,0 C 10,0 10,10 0,10 C -10,10 -10,0 0,0 Z" stroke="black" fill="none"/>
        <path d="M 0,-5 C 15,-5 15,15 -5,15 C -20,15 -20,-5 0,-5 Z" stroke="black" fill="none"/>
    </g><g transform="translate(50, 50) scale(0.7)">
        <path d="M 0,0 C -10,-10 10,-10 0,0 C -10,10 10,10 0,0 Z" stroke="black" fill="none"/>
        <path d="M 0,-10 C -10,0 -5,10 0,0" stroke="black" fill="none"/>
        <path d="M 0,-10 C 10,0 5,10 0,0" stroke="black" fill="none"/>
    </g><g transform="translate(150, 150) scale(0.5)">
        <line x1="0" y1="-15" x2="0" y2="15" stroke="black" stroke-width="2"/>
        <circle cx="0" cy="-15" r="5" stroke="black" fill="black"/>
    </g><g transform="translate(50, 150) scale(0.5)">
        <circle cx="0" cy="0" r="10" stroke="black" fill="none"/>
        <line x1="-10" y1="0" x2="10" y2="0" stroke="black"/>
        <line x1="0" y1="-10" x2="0" y2="10" stroke="black"/>
        <line x1="-7" y1="-7" x2="7" y2="7" stroke="black"/>
        <line x1="-7" y1="7" x2="7" y2="-7" stroke="black"/>
    </g><text x="150" y="80" font-size="12" text-anchor="middle">Shankha</text><text x="50" y="80" font-size="12" text-anchor="middle">Padma</text><text x="150" y="180" font-size="12" text-anchor="middle">Gadaa</text><text x="50" y="180" font-size="12" text-anchor="middle">Chakra</text></svg>